<svg preserveAspectRatio="xMidYMid meet" data-bbox="29 29 141.667 141.667" viewBox="29 29 141.667 141.667" height="200" width="200" xmlns="http://www.w3.org/2000/svg" data-type="shape" role="presentation" aria-hidden="true" aria-label="">
    <g>
        <path d="M126.497 67.03c3.732-1.017 7.157 2.407 6.139 6.14l-10.863 39.832a12.503 12.503 0 0 1-8.771 8.771L73.17 132.636c-3.733 1.018-7.157-2.407-6.14-6.139l10.864-39.832a12.5 12.5 0 0 1 8.77-8.771l39.833-10.863ZM91.19 85.298l23.179 23.18 8.693-31.872-31.872 8.692Zm17.287 29.072-23.18-23.18-8.692 31.873 31.872-8.693Z" fill-rule="evenodd"></path>
        <path d="M99.833 170.667c39.121 0 70.834-31.713 70.834-70.834 0-39.12-31.713-70.833-70.834-70.833C60.713 29 29 60.713 29 99.833c0 39.121 31.713 70.834 70.833 70.834Zm0-8.334c34.518 0 62.5-27.982 62.5-62.5 0-34.517-27.982-62.5-62.5-62.5-34.517 0-62.5 27.983-62.5 62.5 0 34.518 27.983 62.5 62.5 62.5Z" fill-rule="evenodd"></path>
    </g>
</svg>